<svg width="120" height="24" viewBox="0 0 120 24" fill="none" xmlns="http://www.w3.org/2000/svg">
<path fill-rule="evenodd" clip-rule="evenodd" d="M18.4301 19.5297V3.892H22.6627V6.26829L22.911 5.93608C24.0062 4.47176 25.8535 3.68503 28.2594 3.65601V7.63316L28.2107 7.6294C27.9065 7.60548 27.6436 7.58505 27.3381 7.58505C24.4597 7.58505 22.8744 9.20768 22.8744 12.1543V19.5297H18.4301Z" fill="#101840"/>
<path fill-rule="evenodd" clip-rule="evenodd" d="M37.2165 6.90998C34.7115 6.90998 33.0991 8.59727 33.0089 11.3137L33.0031 11.4843L41.2174 9.89994L41.1785 9.75897C40.6947 8.00161 39.1765 6.90998 37.2165 6.90998ZM37.7892 19.9367C32.4193 19.9367 28.6689 16.5893 28.6689 11.7964C28.6689 7.07946 32.2636 3.65601 37.2163 3.65601C42.0054 3.65601 45.3804 6.88987 45.4608 11.5351L33.404 13.8465L33.472 14.0016C34.1803 15.6188 35.7149 16.4736 37.9099 16.4736C39.5675 16.4736 40.8269 16.0108 41.9733 14.9762L44.2985 17.4748C42.8006 19.1085 40.6111 19.9367 37.7892 19.9367Z" fill="#101840"/>
<path fill-rule="evenodd" clip-rule="evenodd" d="M69.3074 19.5297V11.2678C69.3074 8.7599 68.1709 7.37871 66.1071 7.37871C63.7489 7.37871 62.3962 8.94697 62.3962 11.6817V19.5297H57.9834V11.2678C57.9834 8.05331 56.2432 7.37871 54.7831 7.37871C52.4438 7.37871 51.1022 8.94697 51.1022 11.6817V19.5297H46.6895V3.89279H50.8919V5.95074L51.1314 5.67956C52.2843 4.37469 54.0505 3.65601 56.1047 3.65601C58.3873 3.65601 60.2346 4.55826 61.3066 6.19613L61.4107 6.35524L61.5289 6.20634C62.8164 4.58567 64.901 3.65601 67.2485 3.65601C71.3614 3.65601 73.7202 6.17167 73.7202 10.5582V19.5297H69.3074Z" fill="#101840"/>
<path fill-rule="evenodd" clip-rule="evenodd" d="M84.0486 7.20888C81.5066 7.20888 79.7984 9.05261 79.7984 11.7965C79.7984 14.5406 81.5066 16.3841 84.0486 16.3841C86.5334 16.3841 88.2689 14.4977 88.2689 11.7965C88.2689 9.09525 86.5334 7.20888 84.0486 7.20888ZM82.993 20.1176C78.3506 20.1176 75.1079 16.7702 75.1079 11.9773C75.1079 7.18432 78.3506 3.83691 82.993 3.83691C84.9698 3.83691 86.5948 4.4926 87.6921 5.73334L87.929 6.00116V4.07594H92.3093V19.8786H88.138V17.7858L87.8981 18.0753C86.7759 19.4307 85.1254 20.1176 82.993 20.1176Z" fill="#101840"/>
<path fill-rule="evenodd" clip-rule="evenodd" d="M101.031 19.9367C98.4986 19.9367 95.7749 19.2778 94.198 18.2896L95.6461 15.1905C97.1355 16.1001 99.2991 16.6827 101.211 16.6827C103.306 16.6827 104.325 16.1593 104.325 15.0829C104.325 13.9397 102.741 13.7094 100.906 13.4426C98.0746 13.0311 94.5515 12.5191 94.5515 8.71894C94.5515 5.64315 97.4371 3.65601 101.903 3.65601C104.146 3.65601 106.5 4.17344 107.951 4.98014L106.503 8.05158C105.105 7.29404 103.559 6.90997 101.903 6.90997C99.0654 6.90997 98.7589 8.04968 98.7589 8.53967C98.7589 9.74755 100.388 9.99988 102.275 10.2921C105.063 10.7237 108.532 11.2613 108.532 14.9634C108.532 17.9846 105.588 19.9367 101.031 19.9367Z" fill="#101840"/>
<path fill-rule="evenodd" clip-rule="evenodd" d="M115.562 19.9367C116.965 19.9367 118.254 19.5983 119.121 19.008L118.007 15.9915C117.481 16.3299 116.839 16.5141 116.182 16.5141C114.858 16.5141 114.099 15.6936 114.099 14.2639V11.177H114.096V0.399902H109.761V14.3235C109.761 17.9952 111.769 19.9367 115.562 19.9367ZM120 4.30181H114.925V7.60534H117.533L120 4.30181Z" fill="#101840"/>
<path fill-rule="evenodd" clip-rule="evenodd" d="M13.5663 4.06299H6.71556C3.02295 4.06299 0 7.04527 0 10.6856V20.3072V23.5998H4.41719L7.01342 20.3072H4.42352V11.4333C4.42352 9.75889 5.81353 8.38854 7.51408 8.38854H10.6638C11.3757 8.38854 11.9587 8.96542 11.9587 9.66517V12.8203C11.9587 14.4322 10.6194 15.7505 8.98647 15.7505H7.95347V20.0761H9.91808C13.4755 20.0761 16.3823 17.2063 16.3823 13.7012V6.84117C16.3823 5.31463 15.1148 4.06299 13.5663 4.06299Z" fill="#101840"/>
</svg>
